<?xml version="1.0" encoding="utf-8"?>
<!-- Generator: Adobe Illustrator 17.0.0, SVG Export Plug-In . SVG Version: 6.00 Build 0)  -->
<!DOCTYPE svg PUBLIC "-//W3C//DTD SVG 1.1//EN" "http://www.w3.org/Graphics/SVG/1.1/DTD/svg11.dtd">
<svg version="1.1" id="Layer_1" xmlns="http://www.w3.org/2000/svg" xmlns:xlink="http://www.w3.org/1999/xlink" x="0px" y="0px"
	 width="550px" height="515px" viewBox="0 0 550 515" enable-background="new 0 0 550 515" xml:space="preserve">
<g>
	<path fill="#ECEEEF" d="M204.567,509.1H68.033c-5.12,0-8.533-3.413-8.533-8.533V210.433c0-5.12,3.413-8.533,8.533-8.533h136.533
		c5.12,0,8.533,3.413,8.533,8.533v290.133C213.1,505.687,209.687,509.1,204.567,509.1z"/>
	<path fill="#ECEEEF" d="M379.433,512.695H199.448c-4.909,0-8.181-3.333-8.181-8.334V121.008c0-1.667,0.818-4.167,2.454-5.834
		l89.993-100.005c3.272-3.334,8.999-3.334,12.272,0l89.993,100.005c1.636,1.667,2.454,3.334,2.454,5.834v383.354
		C387.615,509.362,384.342,512.695,379.433,512.695z"/>
	<rect x="105" y="257" fill="#B9B9BA" width="51" height="51"/>
	<rect x="267" y="215" fill="#B9B9BA" width="51" height="127"/>
	<path fill="#ECEEEF" d="M38.541,221.002c-1.707-2.56-2.56-5.12-1.707-7.68l25.6-102.4c0.853-4.267,4.267-6.827,8.533-6.827h128
		c5.12,0,8.533,3.413,8.533,8.533v102.4c0,5.12-3.413,8.533-8.533,8.533h-153.6C42.807,223.562,40.247,223.562,38.541,221.002z"/>
	<path fill="#ECEEEF" d="M540.133,223.562h-153.6c-5.12,0-8.533-3.413-8.533-8.533v-102.4c0-5.12,3.413-8.533,8.533-8.533h128
		c4.267,0,7.68,2.56,8.533,6.827l25.6,102.4c0.853,2.56,0,5.12-1.707,7.68S542.693,223.562,540.133,223.562z"/>
	<path fill="#ECEEEF" d="M525.067,513.6H388.533c-5.12,0-8.533-3.413-8.533-8.533V214.933c0-5.12,3.413-8.533,8.533-8.533h136.533
		c5.12,0,8.533,3.413,8.533,8.533v290.133C533.6,510.187,530.187,513.6,525.067,513.6z"/>
	<rect x="352" y="462" fill="#024F9C" width="180" height="18"/>
	<rect x="234" y="360" fill="none" stroke="#024F9C" stroke-width="12" stroke-miterlimit="10" width="59" height="148"/>
	<rect x="293" y="360" fill="none" stroke="#024F9C" stroke-width="12" stroke-miterlimit="10" width="59" height="148"/>
	<rect x="278" y="434" fill="#024F9C" width="30" height="9"/>
	<path fill="#024F9C" d="M386.533,513.695H198.8c-5.12,0-8.533-3.413-8.533-8.533V112.629c0-1.707,0.853-4.267,2.56-5.973
		l93.867-102.4c3.413-3.413,9.387-3.413,12.8,0l93.867,102.4c1.707,1.707,2.56,3.413,2.56,5.973v392.533
		C395.067,510.282,391.653,513.695,386.533,513.695z M207.333,496.629H378V116.042l-85.333-93.013l-85.333,93.013V496.629z"/>
	<path fill="#024F9C" d="M198.8,223.562H45.2c-2.56,0-5.12-0.853-6.827-3.413c-1.707-2.56-1.707-4.267-1.707-6.827l25.6-102.4
		c0.853-4.267,4.267-6.827,8.533-6.827h128c5.12,0,8.533,3.413,8.533,8.533v102.4C207.333,220.149,203.92,223.562,198.8,223.562z
		 M56.293,206.495h133.973v-85.333H77.627L56.293,206.495z"/>
	<path fill="#024F9C" d="M540.133,223.562h-153.6c-5.12,0-8.533-3.413-8.533-8.533v-102.4c0-5.12,3.413-8.533,8.533-8.533h128
		c4.267,0,7.68,2.56,8.533,6.827l25.6,102.4c0.853,2.56,0,5.12-1.707,7.68S542.693,223.562,540.133,223.562z M395.067,206.495
		H529.04l-21.333-85.333h-112.64V206.495z"/>
	<path fill="#024F9C" d="M198.8,513.695H62.267c-5.12,0-8.533-3.413-8.533-8.533V215.029c0-5.12,3.413-8.533,8.533-8.533H198.8
		c5.12,0,8.533,3.413,8.533,8.533v290.133C207.333,510.282,203.92,513.695,198.8,513.695z M70.8,496.629h119.467V223.562H70.8
		V496.629z"/>
	<path fill="#024F9C" d="M526.067,513.695H389.533c-5.12,0-8.533-3.413-8.533-8.533V215.029c0-5.12,3.413-8.533,8.533-8.533h136.533
		c5.12,0,8.533,3.413,8.533,8.533v290.133C534.6,510.282,531.187,513.695,526.067,513.695z M398.067,496.629h119.467V223.562
		H398.067V496.629z"/>
	<path fill="#024F9C" d="M292.667,189.429c-28.16,0-51.2-23.04-51.2-51.2s23.04-51.2,51.2-51.2s51.2,23.04,51.2,51.2
		S320.827,189.429,292.667,189.429z M292.667,104.095c-18.773,0-34.133,15.36-34.133,34.133s15.36,34.133,34.133,34.133
		s34.133-15.36,34.133-34.133S311.44,104.095,292.667,104.095z"/>
	<path fill="#024F9C" d="M164.667,325.962H96.4c-5.12,0-8.533-3.413-8.533-8.533v-68.267c0-5.12,3.413-8.533,8.533-8.533h68.267
		c5.12,0,8.533,3.413,8.533,8.533v68.267C173.2,322.549,169.787,325.962,164.667,325.962z M104.933,308.895h51.2v-51.2h-51.2
		V308.895z"/>
	<path fill="#024F9C" d="M326.8,325.962h-68.267c-5.12,0-8.533-4.779-8.533-11.947v-95.573c0-7.168,3.413-11.947,8.533-11.947H326.8
		c5.12,0,8.533,4.779,8.533,11.947v95.573C335.333,321.183,331.92,325.962,326.8,325.962z M267.067,302.069h51.2v-81.68h-51.2
		V302.069z"/>
	<path fill="#024F9C" d="M164.667,428.362H96.4c-5.12,0-8.533-3.413-8.533-8.533v-68.267c0-5.12,3.413-8.533,8.533-8.533h68.267
		c5.12,0,8.533,3.413,8.533,8.533v68.267C173.2,424.949,169.787,428.362,164.667,428.362z M104.933,411.295h51.2v-51.2h-51.2
		V411.295z"/>
	<path fill="#024F9C" d="M488.933,325.962h-68.267c-5.12,0-8.533-3.413-8.533-8.533v-68.267c0-5.12,3.413-8.533,8.533-8.533h68.267
		c5.12,0,8.533,3.413,8.533,8.533v68.267C497.467,322.549,494.053,325.962,488.933,325.962z M429.2,308.895h51.2v-51.2h-51.2
		V308.895z"/>
	<path fill="#024F9C" d="M488.933,428.362h-68.267c-5.12,0-8.533-3.413-8.533-8.533v-68.267c0-5.12,3.413-8.533,8.533-8.533h68.267
		c5.12,0,8.533,3.413,8.533,8.533v68.267C497.467,424.949,494.053,428.362,488.933,428.362z M429.2,411.295h51.2v-51.2h-51.2
		V411.295z"/>
	<rect x="56" y="462" fill="#024F9C" width="180" height="18"/>
	<rect x="77" y="310" fill="#024F9C" width="107" height="16"/>
	<rect x="77" y="413" fill="#024F9C" width="107" height="16"/>
	<rect x="401" y="310" fill="#024F9C" width="107" height="16"/>
	<rect x="402" y="412" fill="#024F9C" width="107" height="16"/>
	<rect x="126.5" y="355.5" fill="#024F9C" stroke="#024F9C" stroke-width="3" stroke-miterlimit="10" width="7" height="71"/>
	<rect x="95.5" y="385.5" fill="#024F9C" stroke="#024F9C" stroke-width="3" stroke-miterlimit="10" width="71" height="7"/>
	<rect x="127.5" y="246.5" fill="#024F9C" stroke="#024F9C" stroke-width="3" stroke-miterlimit="10" width="7" height="71"/>
	<rect x="95.5" y="279.5" fill="#024F9C" stroke="#024F9C" stroke-width="3" stroke-miterlimit="10" width="71" height="7"/>
	<rect x="288.5" y="214.5" fill="#024F9C" stroke="#024F9C" stroke-width="3" stroke-miterlimit="10" width="7" height="104"/>
	<rect x="452.5" y="249.5" fill="#024F9C" stroke="#024F9C" stroke-width="3" stroke-miterlimit="10" width="7" height="71"/>
	<rect x="421.5" y="282.5" fill="#024F9C" stroke="#024F9C" stroke-width="3" stroke-miterlimit="10" width="71" height="7"/>
	<rect x="452.5" y="349.5" fill="#024F9C" stroke="#024F9C" stroke-width="3" stroke-miterlimit="10" width="7" height="71"/>
	<rect x="421.5" y="382.5" fill="#024F9C" stroke="#024F9C" stroke-width="3" stroke-miterlimit="10" width="71" height="7"/>
	<rect x="288.5" y="102.5" fill="#024F9C" stroke="#024F9C" stroke-width="3" stroke-miterlimit="10" width="7" height="71"/>
	<rect x="257.5" y="135.5" fill="#024F9C" stroke="#024F9C" stroke-width="3" stroke-miterlimit="10" width="71" height="7"/>
	<rect x="239" y="303" fill="none" stroke="#024F9C" stroke-width="14" stroke-miterlimit="10" width="107" height="37"/>
	<rect x="239" y="304" fill="#B9B9BA" width="107" height="37"/>
	<rect x="247" y="302" fill="#024F9C" width="5" height="42"/>
	<rect x="261" y="302" fill="#024F9C" width="5" height="42"/>
	<rect x="276" y="300" fill="#024F9C" width="5" height="42"/>
	<rect x="290" y="302" fill="#024F9C" width="5" height="42"/>
	<rect x="306" y="300" fill="#024F9C" width="5" height="42"/>
	<rect x="320" y="300" fill="#024F9C" width="5" height="42"/>
	<rect x="334" y="301" fill="#024F9C" width="5" height="42"/>
	<g>
		<rect x="9" y="284" fill="none" stroke="#024F9C" stroke-width="14" stroke-miterlimit="10" width="186" height="57"/>
		<rect x="9" y="288" fill="#B9B9BA" width="183" height="49"/>
		<rect x="9" y="304" fill="#024F9C" width="183" height="5"/>
		<rect x="8" y="314" fill="#024F9C" width="186" height="5"/>
		<rect x="9" y="323" fill="#024F9C" width="186" height="5"/>
	</g>
</g>
</svg>
