<?xml version="1.0" encoding="utf-8"?>
<!-- Generator: Adobe Illustrator 17.0.0, SVG Export Plug-In . SVG Version: 6.00 Build 0)  -->
<!DOCTYPE svg PUBLIC "-//W3C//DTD SVG 1.1//EN" "http://www.w3.org/Graphics/SVG/1.1/DTD/svg11.dtd">
<svg version="1.1" id="Layer_1" xmlns="http://www.w3.org/2000/svg" xmlns:xlink="http://www.w3.org/1999/xlink" x="0px" y="0px"
	 width="500px" height="515px" viewBox="0 0 500 515" enable-background="new 0 0 500 515" xml:space="preserve">
<g>
	<rect x="269" y="181" fill="#ECEEEF" width="201" height="322"/>
	<rect x="29" y="63" fill="#ECEEEF" width="235" height="438"/>
	<path fill="#ECEEEF" d="M480.9,189.467H267.567c-5.12,0-8.533-3.413-8.533-8.533V146.8c0-5.12,3.413-8.533,8.533-8.533H480.9
		c9.387,0,17.067,7.68,17.067,17.067V172.4C497.967,181.787,490.287,189.467,480.9,189.467z"/>
	<path fill="#ECEEEF" d="M267.467,70H28.533c-14.507,0-25.6-11.093-25.6-25.6V27.333c0-14.507,11.093-25.6,25.6-25.6h238.933
		c14.507,0,25.6,11.093,25.6,25.6V44.4C293.067,58.907,281.973,70,267.467,70z"/>
	<path fill="#024F9C" d="M267.567,513.733H28.633c-5.12,0-8.533-3.413-8.533-8.533V61.467c0-5.12,3.413-8.533,8.533-8.533h238.933
		c5.12,0,8.533,3.413,8.533,8.533V505.2C276.1,510.32,272.687,513.733,267.567,513.733z M37.167,496.667h221.867V70H37.167V496.667z
		"/>
	<path fill="#024F9C" d="M267.567,70H28.633c-14.507,0-25.6-11.093-25.6-25.6V27.333c0-14.507,11.093-25.6,25.6-25.6h238.933
		c14.507,0,25.6,11.093,25.6,25.6V44.4C293.167,58.907,282.073,70,267.567,70z M28.633,18.8c-5.12,0-8.533,3.413-8.533,8.533V44.4
		c0,5.12,3.413,8.533,8.533,8.533h238.933c5.12,0,8.533-3.413,8.533-8.533V27.333c0-5.12-3.413-8.533-8.533-8.533H28.633z"/>
	<path fill="#024F9C" d="M472.367,513.733h-204.8c-5.12,0-8.533-3.413-8.533-8.533V180.933c0-5.12,3.413-8.533,8.533-8.533h204.8
		c5.12,0,8.533,3.413,8.533,8.533V505.2C480.9,510.32,477.487,513.733,472.367,513.733z M276.1,496.667h187.733v-307.2H276.1
		V496.667z"/>
	<path fill="#024F9C" d="M480.9,189.467H267.567c-5.12,0-8.533-3.413-8.533-8.533V146.8c0-5.12,3.413-8.533,8.533-8.533H480.9
		c9.387,0,17.067,7.68,17.067,17.067V172.4C497.967,181.787,490.287,189.467,480.9,189.467z M276.1,172.4h204.8v-17.067H276.1V172.4
		z"/>
	<rect x="58" y="239" fill="none" stroke="#024F9C" stroke-width="14" stroke-miterlimit="10" width="40" height="41"/>
	<rect x="127" y="239" fill="none" stroke="#024F9C" stroke-width="14" stroke-miterlimit="10" width="40" height="41"/>
	<rect x="195" y="239" fill="none" stroke="#024F9C" stroke-width="14" stroke-miterlimit="10" width="40" height="41"/>
	<rect x="58" y="307" fill="none" stroke="#024F9C" stroke-width="14" stroke-miterlimit="10" width="40" height="41"/>
	<rect x="127" y="307" fill="none" stroke="#024F9C" stroke-width="14" stroke-miterlimit="10" width="40" height="41"/>
	<rect x="195" y="307" fill="none" stroke="#024F9C" stroke-width="14" stroke-miterlimit="10" width="40" height="41"/>
	<rect x="58" y="170" fill="none" stroke="#024F9C" stroke-width="14" stroke-miterlimit="10" width="40" height="41"/>
	<rect x="127" y="170" fill="none" stroke="#024F9C" stroke-width="14" stroke-miterlimit="10" width="40" height="41"/>
	<rect x="195" y="170" fill="none" stroke="#024F9C" stroke-width="14" stroke-miterlimit="10" width="40" height="41"/>
	<rect x="58" y="102" fill="none" stroke="#024F9C" stroke-width="14" stroke-miterlimit="10" width="40" height="41"/>
	<rect x="127" y="102" fill="none" stroke="#024F9C" stroke-width="14" stroke-miterlimit="10" width="40" height="41"/>
	<rect x="195" y="102" fill="none" stroke="#024F9C" stroke-width="14" stroke-miterlimit="10" width="40" height="41"/>
	<rect x="267" y="213" fill="none" stroke="#024F9C" stroke-width="14" stroke-miterlimit="10" width="40" height="41"/>
	<rect x="336" y="213" fill="none" stroke="#024F9C" stroke-width="14" stroke-miterlimit="10" width="40" height="41"/>
	<rect x="404" y="213" fill="none" stroke="#024F9C" stroke-width="14" stroke-miterlimit="10" width="40" height="41"/>
	<rect x="268" y="281" fill="none" stroke="#024F9C" stroke-width="14" stroke-miterlimit="10" width="40" height="41"/>
	<rect x="337" y="281" fill="none" stroke="#024F9C" stroke-width="14" stroke-miterlimit="10" width="40" height="41"/>
	<rect x="405" y="281" fill="none" stroke="#024F9C" stroke-width="14" stroke-miterlimit="10" width="40" height="41"/>
	<rect x="267" y="349" fill="none" stroke="#024F9C" stroke-width="14" stroke-miterlimit="10" width="40" height="41"/>
	<rect x="336" y="349" fill="none" stroke="#024F9C" stroke-width="14" stroke-miterlimit="10" width="40" height="41"/>
	<rect x="404" y="349" fill="none" stroke="#024F9C" stroke-width="14" stroke-miterlimit="10" width="40" height="41"/>
	<rect x="77" y="387" fill="none" stroke="#024F9C" stroke-width="10" stroke-miterlimit="10" width="137" height="117"/>
	<rect x="126" y="449" fill="#024F9C" width="30" height="9"/>
	<rect x="145" y="449" fill="#024F9C" width="30" height="9"/>
	<rect x="145" y="389" fill="#024F9C" width="9" height="114"/>
</g>
</svg>
