<?xml version="1.0" encoding="utf-8"?>
<!-- Generator: Adobe Illustrator 17.0.0, SVG Export Plug-In . SVG Version: 6.00 Build 0)  -->
<!DOCTYPE svg PUBLIC "-//W3C//DTD SVG 1.1//EN" "http://www.w3.org/Graphics/SVG/1.1/DTD/svg11.dtd">
<svg version="1.1" id="Layer_1" xmlns="http://www.w3.org/2000/svg" xmlns:xlink="http://www.w3.org/1999/xlink" x="0px" y="0px"
	 width="510px" height="440px" viewBox="0 0 510 440" enable-background="new 0 0 510 440" xml:space="preserve">
<g>
	<polygon fill="#ECEEEF" points="502.631,436.097 5.916,435.903 88,5.935 399.138,6.056 	"/>
	<polygon fill="none" stroke="#024F9C" stroke-width="6" stroke-miterlimit="10" points="502.316,435.097 5.917,434.903 
		87.949,4.935 398.889,5.056 	"/>
	<rect x="17" y="371" fill="#ECEEEF" width="10" height="57"/>
	<rect x="482" y="371" fill="#ECEEEF" width="10" height="57"/>
	<path fill="#024F9C" d="M405.333,436.737l-57.4-0.022c-8.61-0.003-14.349-2.109-14.348-5.263l0.021-52.575
		c0-1.051,1.436-2.102,2.871-3.153l28.706-15.761c5.741-3.152,18.656-3.147,24.395,0.01l28.694,15.784
		c1.435,1.052,2.869,2.104,2.869,3.156l-0.021,52.575C419.684,434.64,413.943,436.741,405.333,436.737z"/>
	<path fill="#024F9C" d="M32.134,437.592l-20.029-0.008c-3.004-0.001-5.006-2.105-5.005-5.259l0.021-52.575
		c0-1.051,0.502-2.103,1.003-3.154l10.021-15.769c2.004-3.154,6.511-3.152,8.512,0.003l10.008,15.776c0.5,1.052,1.001,2.103,1,3.155
		l-0.021,52.575C37.142,435.491,35.138,437.593,32.134,437.592z M17.116,427.071l10.015,0.004l0.018-45.74l-5.004-7.888l-5.01,7.884
		L17.116,427.071z"/>
	<path fill="#024F9C" d="M52.163,437.599l-20.029-0.008c-3.004-0.001-5.006-2.105-5.005-5.259l0.021-52.575
		c0-1.051,0.502-2.103,1.003-3.154l10.021-15.769c2.004-3.154,6.511-3.152,8.512,0.003l10.008,15.776c0.5,1.052,1.001,2.103,1,3.155
		l-0.021,52.575C57.171,435.498,55.167,437.601,52.163,437.599z M37.145,427.079l10.014,0.004l0.018-45.74l-5.004-7.888l-5.01,7.884
		L37.145,427.079z"/>
	<path fill="#024F9C" d="M72.192,437.607l-20.029-0.008c-3.004-0.001-5.006-2.105-5.005-5.259l0.021-52.575
		c0-1.052,0.502-2.103,1.003-3.154l10.021-15.769c2.004-3.154,6.511-3.152,8.512,0.003l10.008,15.776c0.5,1.052,1.001,2.103,1,3.155
		l-0.021,52.575C77.2,435.506,75.196,437.608,72.192,437.607z M57.174,427.086l10.015,0.004l0.018-45.74l-5.004-7.888l-5.01,7.884
		L57.174,427.086z"/>
	<path fill="#024F9C" d="M92.8,437.615l-20.029-0.008c-3.004-0.001-5.006-2.105-5.005-5.259l0.021-52.575
		c0-1.051,0.502-2.103,1.003-3.154L78.81,360.85c2.004-3.154,6.511-3.152,8.512,0.003l10.008,15.776c0.5,1.052,1.001,2.103,1,3.155
		L98.31,432.36C97.808,435.514,95.805,437.616,92.8,437.615z M77.783,427.094l10.015,0.004l0.018-45.74l-5.004-7.888l-5.01,7.884
		L77.783,427.094z"/>
	<path fill="#024F9C" d="M112.829,437.623L92.8,437.615c-3.004-0.001-5.006-2.105-5.005-5.259l0.021-52.575
		c0-1.051,0.502-2.103,1.003-3.154l10.021-15.769c2.004-3.154,6.511-3.152,8.512,0.003l10.008,15.776c0.5,1.052,1.001,2.103,1,3.155
		l-0.021,52.575C117.837,435.522,115.834,437.624,112.829,437.623z M97.812,427.102l10.015,0.004l0.018-45.74l-5.004-7.888
		l-5.01,7.884L97.812,427.102z"/>
	<path fill="#024F9C" d="M112.829,437.623L92.8,437.615c-3.004-0.001-5.006-2.105-5.005-5.259l0.021-52.575
		c0-1.051,0.502-2.103,1.003-3.154l10.021-15.769c2.004-3.154,6.511-3.152,8.512,0.003l10.008,15.776c0.5,1.052,1.001,2.103,1,3.155
		l-0.021,52.575C117.837,435.522,115.834,437.624,112.829,437.623z M97.812,427.102l10.014,0.004l0.018-45.74l-5.004-7.888
		l-5.01,7.884L97.812,427.102z"/>
	<path fill="#024F9C" d="M132.858,437.631l-20.029-0.008c-3.004-0.001-5.006-2.105-5.005-5.259l0.021-52.575
		c0-1.052,0.502-2.103,1.003-3.154l10.021-15.769c2.004-3.154,6.511-3.152,8.512,0.003l10.008,15.776c0.5,1.052,1.001,2.103,1,3.155
		l-0.021,52.575C137.866,435.53,135.863,437.632,132.858,437.631z M117.841,427.11l10.015,0.004l0.018-45.74l-5.004-7.888
		l-5.01,7.884L117.841,427.11z"/>
	<path fill="#024F9C" d="M152.887,437.639l-20.029-0.008c-3.004-0.001-5.006-2.105-5.005-5.259l0.021-52.575
		c0-1.052,0.502-2.103,1.003-3.154l10.021-15.769c2.004-3.154,6.511-3.152,8.512,0.003l10.008,15.776c0.5,1.052,1.001,2.103,1,3.155
		l-0.02,52.575C157.895,435.538,155.892,437.64,152.887,437.639z M137.87,427.118l10.015,0.004l0.018-45.74l-5.004-7.888
		l-5.01,7.884L137.87,427.118z"/>
	<path fill="#024F9C" d="M173.496,437.647l-20.029-0.008c-3.004-0.001-5.006-2.105-5.005-5.259l0.02-52.575
		c0-1.052,0.502-2.103,1.003-3.154l10.021-15.769c2.004-3.154,6.511-3.152,8.512,0.003l10.008,15.776c0.5,1.052,1.001,2.103,1,3.155
		l-0.02,52.575C178.504,435.546,176.5,437.648,173.496,437.647z M158.478,427.126l10.015,0.004l0.018-45.74l-5.004-7.888
		l-5.01,7.884L158.478,427.126z"/>
	<path fill="#024F9C" d="M193.525,436.655l-20.029-0.008c-3.004-0.001-5.006-2.105-5.005-5.259l0.02-52.575
		c0-1.052,0.502-2.103,1.003-3.154l10.021-15.769c2.004-3.154,6.511-3.152,8.512,0.003l10.008,15.776c0.5,1.052,1.001,2.103,1,3.155
		l-0.021,52.575C198.534,434.553,196.53,436.656,193.525,436.655z M178.508,426.134l10.014,0.004l0.018-45.74l-5.004-7.888
		l-5.01,7.884L178.508,426.134z"/>
	<path fill="#024F9C" d="M193.534,437.486l-20.029-0.008c-3.004-0.001-5.006-2.105-5.005-5.259l0.021-52.575
		c0-1.052,0.502-2.103,1.003-3.154l10.021-15.769c2.004-3.154,6.511-3.152,8.512,0.003l10.008,15.776c0.5,1.052,1.001,2.103,1,3.155
		l-0.021,52.575C198.542,435.385,196.538,437.487,193.534,437.486z M178.516,426.965l10.014,0.004l0.018-45.74l-5.004-7.888
		l-5.01,7.884L178.516,426.965z"/>
	<path fill="#024F9C" d="M213.563,437.494l-20.029-0.008c-3.004-0.001-5.006-2.105-5.005-5.259l0.02-52.575
		c0-1.052,0.502-2.103,1.003-3.154l10.021-15.769c2.004-3.154,6.511-3.152,8.512,0.003l10.008,15.776c0.5,1.052,1.001,2.103,1,3.155
		l-0.021,52.575C218.571,435.393,216.567,437.495,213.563,437.494z M198.545,426.973l10.015,0.004l0.018-45.74l-5.004-7.888
		l-5.01,7.884L198.545,426.973z"/>
	<path fill="#024F9C" d="M233.592,437.502l-20.029-0.008c-3.004-0.001-5.006-2.105-5.005-5.259l0.021-52.575
		c0-1.051,0.502-2.103,1.003-3.154l10.021-15.769c2.004-3.154,6.511-3.152,8.512,0.003l10.008,15.776c0.5,1.052,1.001,2.103,1,3.155
		l-0.02,52.575C238.6,435.401,236.596,437.503,233.592,437.502z M218.574,426.981l10.015,0.004l0.018-45.74l-5.004-7.888
		l-5.01,7.884L218.574,426.981z"/>
	<path fill="#024F9C" d="M254.201,437.51l-20.029-0.008c-3.004-0.001-5.006-2.105-5.005-5.259l0.021-52.575
		c0-1.052,0.502-2.103,1.003-3.154l10.021-15.769c2.004-3.154,6.511-3.152,8.512,0.003l10.008,15.776c0.5,1.052,1.001,2.103,1,3.155
		l-0.021,52.575C259.209,435.409,257.205,437.511,254.201,437.51z M239.183,426.989l10.014,0.004l0.018-45.74l-5.004-7.888
		l-5.01,7.884L239.183,426.989z"/>
	<path fill="#024F9C" d="M274.23,436.518l-20.029-0.008c-3.004-0.001-5.006-2.105-5.005-5.259l0.02-52.575
		c0-1.052,0.502-2.103,1.003-3.154l10.021-15.769c2.004-3.154,6.511-3.152,8.512,0.003l10.008,15.776c0.5,1.052,1.001,2.103,1,3.155
		l-0.02,52.575C279.238,434.417,277.234,436.519,274.23,436.518z M259.212,425.997l10.014,0.004l0.018-45.74l-5.004-7.888
		l-5.01,7.884L259.212,425.997z"/>
	<path fill="#024F9C" d="M294.777,437.357l-20.029-0.008c-3.004-0.001-5.006-2.105-5.005-5.259l0.021-52.575
		c0-1.052,0.502-2.103,1.003-3.154l10.021-15.769c2.004-3.154,6.511-3.152,8.512,0.003l10.008,15.776c0.5,1.052,1.001,2.103,1,3.155
		l-0.021,52.575C299.785,435.256,297.781,437.358,294.777,437.357z M279.759,426.836l10.014,0.004l0.018-45.74l-5.004-7.888
		l-5.01,7.884L279.759,426.836z"/>
	<path fill="#024F9C" d="M314.806,437.365l-20.029-0.008c-3.004-0.001-5.006-2.105-5.005-5.259l0.021-52.575
		c0-1.051,0.502-2.103,1.003-3.154l10.021-15.769c2.004-3.154,6.511-3.152,8.512,0.003l10.008,15.776c0.5,1.052,1.001,2.103,1,3.155
		l-0.021,52.575C319.814,435.264,317.81,437.366,314.806,437.365z M299.788,426.844l10.014,0.004l0.018-45.74l-5.004-7.888
		l-5.01,7.884L299.788,426.844z"/>
	<path fill="#024F9C" d="M335.415,437.373l-20.029-0.008c-3.004-0.001-5.006-2.105-5.005-5.259l0.021-52.575
		c0-1.052,0.502-2.103,1.003-3.154l10.021-15.769c2.004-3.154,6.511-3.152,8.512,0.003l10.008,15.776c0.5,1.052,1.001,2.103,1,3.155
		l-0.021,52.575C340.423,435.272,338.419,437.374,335.415,437.373z M320.397,426.852l10.014,0.004l0.018-45.74l-5.004-7.888
		l-5.01,7.884L320.397,426.852z"/>
	<path fill="#024F9C" d="M436.139,437.412l-20.029-0.008c-3.004-0.001-5.006-2.105-5.005-5.259l0.02-52.575
		c0-1.051,0.502-2.103,1.003-3.154l10.021-15.769c2.004-3.154,6.511-3.152,8.512,0.003l10.008,15.776c0.5,1.052,1.001,2.103,1,3.155
		l-0.021,52.575C441.147,435.311,439.144,437.414,436.139,437.412z M421.122,426.892l10.014,0.004l0.018-45.74l-5.004-7.888
		l-5.01,7.884L421.122,426.892z"/>
	<path fill="#024F9C" d="M436.139,437.412l-20.029-0.008c-3.004-0.001-5.006-2.105-5.005-5.259l0.021-52.575
		c0-1.052,0.502-2.103,1.003-3.154l10.021-15.769c2.004-3.154,6.511-3.152,8.512,0.003l10.008,15.776c0.5,1.052,1.001,2.103,1,3.155
		l-0.021,52.575C441.147,435.311,439.144,437.414,436.139,437.412z M421.122,426.892l10.014,0.004l0.018-45.74l-5.004-7.888
		l-5.01,7.884L421.122,426.892z"/>
	<path fill="#024F9C" d="M456.168,437.42l-20.029-0.008c-3.004-0.001-5.006-2.105-5.005-5.259l0.021-52.575
		c0-1.052,0.502-2.103,1.003-3.154l10.021-15.769c2.004-3.154,6.511-3.152,8.512,0.003l10.008,15.776c0.5,1.052,1.001,2.103,1,3.155
		l-0.021,52.575C461.176,435.319,459.173,437.421,456.168,437.42z M441.151,426.899l10.014,0.004l0.018-45.74l-5.004-7.888
		l-5.01,7.884L441.151,426.899z"/>
	<path fill="#024F9C" d="M476.777,437.428l-20.029-0.008c-3.004-0.001-5.006-2.105-5.005-5.259l0.021-52.575
		c0-1.052,0.502-2.103,1.003-3.154l10.021-15.769c2.004-3.154,6.511-3.152,8.512,0.003l10.008,15.776c0.5,1.052,1.001,2.103,1,3.155
		l-0.021,52.575C481.785,435.327,479.781,437.429,476.777,437.428z M461.759,426.907l10.015,0.004l0.018-45.74l-5.004-7.888
		l-5.01,7.884L461.759,426.907z"/>
	<path fill="#024F9C" d="M496.806,437.436l-20.029-0.008c-3.004-0.001-5.006-2.105-5.005-5.259l0.02-52.575
		c0-1.052,0.502-2.103,1.003-3.154l10.021-15.769c2.004-3.154,6.511-3.152,8.512,0.003l10.008,15.776c0.5,1.052,1.001,2.103,1,3.155
		l-0.021,52.575C501.814,435.335,499.81,437.437,496.806,437.436z M481.788,426.915l10.014,0.004l0.018-45.74l-5.004-7.888
		l-5.01,7.884L481.788,426.915z"/>
	<rect x="394.929" y="403.057" fill="#ECEEEF" width="13" height="4"/>
</g>
</svg>
