<?xml version="1.0" encoding="utf-8"?>
<!-- Generator: Adobe Illustrator 17.0.0, SVG Export Plug-In . SVG Version: 6.00 Build 0)  -->
<!DOCTYPE svg PUBLIC "-//W3C//DTD SVG 1.1//EN" "http://www.w3.org/Graphics/SVG/1.1/DTD/svg11.dtd">
<svg version="1.1" id="Layer_1" xmlns="http://www.w3.org/2000/svg" xmlns:xlink="http://www.w3.org/1999/xlink" x="0px" y="0px"
	 width="440px" height="455px" viewBox="0 0 440 455" enable-background="new 0 0 440 455" xml:space="preserve">
<g>
	<path fill="#ECEEEF" d="M26.802,254.158v-60.541c0-3.363,1.419-6.727,4.258-7.568l184.503-90.812c1.419-0.841,3.548-0.841,5.677,0
		l184.503,90.812c2.839,1.682,4.258,4.204,4.258,7.568v245.529c0,5.045-2.839,8.409-7.096,8.409H33.898
		c-4.258,0-7.096-3.363-7.096-8.409v-84.085 M40.995,198.662 M40.995,430.737h354.813"/>
	<rect x="184" y="163" fill="#B9B9BA" width="72" height="51"/>
	<rect x="300" y="257" fill="#B9B9BA" width="73" height="85"/>
	<rect x="60" y="248" fill="#B9B9BA" width="87" height="94"/>
	<rect x="180" y="283" fill="#B9B9BA" width="79" height="154"/>
	<path fill="#ECEEEF" d="M352.041,134.547c-0.731,0-2.193,0-2.924-0.853l-73.102-34.987c-2.924-1.707-4.386-4.267-4.386-7.68v-53.76
		c0-5.12,2.924-8.533,7.31-8.533h73.102c4.386,0,7.31,3.413,7.31,8.533v88.747c0,2.56-1.462,5.12-2.924,6.827
		S353.503,134.547,352.041,134.547z"/>
	<polyline fill="none" stroke="#024F9C" stroke-width="14" stroke-miterlimit="10" points="279,65 349,65 351.979,120.376 	"/>
	<path fill="#ECEEEF" d="M423.747,207.027c-0.702,0-2.105,0-2.806-0.777l-200.651-91.684L19.64,206.25
		c-2.105,0.777-4.911,0.777-6.314-0.777c-2.105-1.554-3.508-3.885-3.508-6.216v-38.849c0-3.108,1.403-6.216,4.209-6.993
		l203.457-93.238c1.403-0.777,3.508-0.777,5.613,0l203.457,93.238c2.806,1.554,4.209,3.885,4.209,6.993v38.849
		c0,2.331-1.403,4.662-2.806,6.216C426.554,206.25,425.151,207.027,423.747,207.027z"/>
	<path fill="#024F9C" d="M430.618,213.867c-0.726,0-2.179,0-2.905-0.853L219.978,112.32L12.244,213.013
		c-2.179,0.853-5.084,0.853-6.537-0.853c-2.179-1.707-3.632-4.267-3.632-6.827v-42.667c0-3.413,1.453-6.827,4.358-7.68l210.64-102.4
		c1.453-0.853,3.632-0.853,5.811,0l210.64,102.4c2.905,1.707,4.358,4.267,4.358,7.68v42.667c0,2.56-1.453,5.12-2.905,6.827
		C433.524,213.013,432.071,213.867,430.618,213.867z M219.978,94.4c0.726,0,2.179,0,2.905,0.853l200.471,97.28V168.64
		L219.978,69.653L16.602,168.64v23.893l200.471-97.28C217.799,94.4,219.252,94.4,219.978,94.4z"/>
	<path fill="#024F9C" d="M350.72,131.947c-0.726,0-2.179,0-2.905-0.853L275.18,96.107c-2.905-1.707-4.358-4.267-4.358-7.68v-53.76
		c0-5.12,2.905-8.533,7.263-8.533h72.634c4.358,0,7.263,3.413,7.263,8.533v88.747c0,2.56-1.453,5.12-2.905,6.827
		C353.626,131.947,352.173,131.947,350.72,131.947z M285.349,82.453l58.108,28.16V43.2h-58.108V82.453z"/>
	<path fill="#024F9C" d="M408.828,452.8H31.129c-4.358,0-7.263-3.413-7.263-8.533V195.093c0-3.413,1.453-6.827,4.358-7.68
		l188.85-92.16c1.453-0.853,3.632-0.853,5.811,0l188.85,92.16c2.905,1.707,4.358,4.267,4.358,7.68v249.173
		C416.091,449.387,413.186,452.8,408.828,452.8z M38.392,435.733h363.172v-235.52L219.978,112.32L38.392,200.213V435.733z"/>
	<path fill="#024F9C" d="M263.559,230.933h-87.161c-4.358,0-7.263-3.413-7.263-8.533v-68.267c0-5.12,2.905-8.533,7.263-8.533h87.161
		c4.358,0,7.263,3.413,7.263,8.533V222.4C270.822,227.52,267.917,230.933,263.559,230.933z M183.661,213.867h72.634v-51.2h-72.634
		V213.867z"/>
	<path fill="#024F9C" d="M147.344,358.933H60.182c-4.358,0-7.263-3.413-7.263-8.533V248c0-5.12,2.905-8.533,7.263-8.533h87.161
		c4.358,0,7.263,3.413,7.263,8.533v102.4C154.607,355.52,151.702,358.933,147.344,358.933z M67.446,341.867h72.634v-85.333H67.446
		V341.867z"/>
	<path fill="#024F9C" d="M379.774,358.933h-87.161c-4.358,0-7.263-3.413-7.263-8.533V248c0-5.12,2.905-8.533,7.263-8.533h87.161
		c4.358,0,7.263,3.413,7.263,8.533v102.4C387.037,355.52,384.132,358.933,379.774,358.933z M299.876,341.867h72.634v-85.333h-72.634
		V341.867z"/>
	<path fill="#024F9C" d="M176.398,410.133H31.129c-4.358,0-7.263-3.413-7.263-8.533c0-5.12,2.905-8.533,7.263-8.533h145.269
		c4.358,0,7.263,3.413,7.263,8.533C183.661,406.72,180.756,410.133,176.398,410.133z"/>
	<path fill="#024F9C" d="M408.828,410.133H263.559c-4.358,0-7.263-3.413-7.263-8.533c0-5.12,2.905-8.533,7.263-8.533h145.269
		c4.358,0,7.263,3.413,7.263,8.533C416.091,406.72,413.186,410.133,408.828,410.133z"/>
	<rect x="229" y="362" fill="#024F9C" width="19" height="7"/>
	<rect x="180" y="283" fill="none" stroke="#024F9C" stroke-width="12" stroke-miterlimit="10" width="79" height="154"/>
	<rect x="45" y="342" fill="#024F9C" width="118" height="18"/>
	<rect x="59" y="294" fill="#024F9C" width="92" height="9"/>
	<rect x="58" y="294" transform="matrix(0.0057 -1 1 0.0057 -195.0913 400.7871)" fill="#024F9C" width="92" height="9"/>
	<rect x="277" y="342" fill="#024F9C" width="118" height="18"/>
	<rect x="291" y="294" fill="#024F9C" width="92" height="9"/>
	<rect x="290" y="294" transform="matrix(0.0057 -1 1 0.0057 35.5788 632.7833)" fill="#024F9C" width="92" height="9"/>
	<rect x="179" y="184" fill="#024F9C" width="83" height="9"/>
	<rect x="163" y="214" fill="#024F9C" width="113" height="18"/>
	<rect x="259.5" y="8.5" fill="#ECEEEF" stroke="#ECEEEF" stroke-miterlimit="10" width="106" height="36"/>
	<rect x="260" y="8" fill="none" stroke="#024F9C" stroke-width="14" stroke-miterlimit="10" width="106" height="36"/>
</g>
</svg>
