<?xml version="1.0" encoding="utf-8"?>
<!-- Generator: Adobe Illustrator 17.0.0, SVG Export Plug-In . SVG Version: 6.00 Build 0)  -->
<!DOCTYPE svg PUBLIC "-//W3C//DTD SVG 1.1//EN" "http://www.w3.org/Graphics/SVG/1.1/DTD/svg11.dtd">
<svg version="1.1" id="Layer_1" xmlns="http://www.w3.org/2000/svg" xmlns:xlink="http://www.w3.org/1999/xlink" x="0px" y="0px"
	 width="515px" height="515px" viewBox="0 0 515 515" enable-background="new 0 0 515 515" xml:space="preserve">
<g>
	<path fill="#ECEEEF" d="M346.945,512.695H167.427c-4.896,0-8.16-3.359-8.16-8.398V117.986c0-1.68,0.816-4.199,2.448-5.879
		L251.474,11.33c3.264-3.359,8.976-3.359,12.24,0l89.759,100.777c1.632,1.68,2.448,3.359,2.448,5.879v386.312
		C355.104,509.336,351.84,512.695,346.945,512.695z"/>
	<rect x="233" y="258" fill="#B9B9BA" width="51" height="51"/>
	<path fill="#ECEEEF" d="M169.567,509.1H33.033c-5.12,0-8.533-3.413-8.533-8.533V210.433c0-5.12,3.413-8.533,8.533-8.533h136.533
		c5.12,0,8.533,3.413,8.533,8.533v290.133C178.1,505.687,174.687,509.1,169.567,509.1z"/>
	<rect x="70" y="258" fill="#B9B9BA" width="51" height="51"/>
	<path fill="#ECEEEF" d="M3.541,221.002c-1.707-2.56-2.56-5.12-1.707-7.68l25.6-102.4c0.853-4.267,4.267-6.827,8.533-6.827h128
		c5.12,0,8.533,3.413,8.533,8.533v102.4c0,5.12-3.413,8.533-8.533,8.533h-153.6C7.807,223.562,5.247,223.562,3.541,221.002z"/>
	<path fill="#ECEEEF" d="M505.133,223.562h-153.6c-5.12,0-8.533-3.413-8.533-8.533v-102.4c0-5.12,3.413-8.533,8.533-8.533h128
		c4.267,0,7.68,2.56,8.533,6.827l25.6,102.4c0.853,2.56,0,5.12-1.707,7.68C510.253,223.562,507.693,223.562,505.133,223.562z"/>
	<path fill="#ECEEEF" d="M490.067,513.6H353.533c-5.12,0-8.533-3.413-8.533-8.533V214.933c0-5.12,3.413-8.533,8.533-8.533h136.533
		c5.12,0,8.533,3.413,8.533,8.533v290.133C498.6,510.187,495.187,513.6,490.067,513.6z"/>
	<rect x="317" y="462" fill="#024F9C" width="180" height="18"/>
	<rect x="199" y="359" fill="none" stroke="#024F9C" stroke-width="12" stroke-miterlimit="10" width="59" height="148"/>
	<rect x="258" y="359" fill="none" stroke="#024F9C" stroke-width="12" stroke-miterlimit="10" width="59" height="148"/>
	<rect x="243" y="435" fill="#024F9C" width="30" height="9"/>
	<path fill="#024F9C" d="M351.533,513.695H163.8c-5.12,0-8.533-3.413-8.533-8.533V112.629c0-1.707,0.853-4.267,2.56-5.973
		l93.867-102.4c3.413-3.413,9.387-3.413,12.8,0l93.867,102.4c1.707,1.707,2.56,3.413,2.56,5.973v392.533
		C360.067,510.282,356.653,513.695,351.533,513.695z M172.333,496.629H343V116.042l-85.333-93.013l-85.333,93.013V496.629z"/>
	<path fill="#024F9C" d="M163.8,223.562H10.2c-2.56,0-5.12-0.853-6.827-3.413s-1.707-4.267-1.707-6.827l25.6-102.4
		c0.853-4.267,4.267-6.827,8.533-6.827h128c5.12,0,8.533,3.413,8.533,8.533v102.4C172.333,220.149,168.92,223.562,163.8,223.562z
		 M21.293,206.495h133.973v-85.333H42.627L21.293,206.495z"/>
	<path fill="#024F9C" d="M505.133,223.562h-153.6c-5.12,0-8.533-3.413-8.533-8.533v-102.4c0-5.12,3.413-8.533,8.533-8.533h128
		c4.267,0,7.68,2.56,8.533,6.827l25.6,102.4c0.853,2.56,0,5.12-1.707,7.68C510.253,223.562,507.693,223.562,505.133,223.562z
		 M360.067,206.495H494.04l-21.333-85.333h-112.64V206.495z"/>
	<path fill="#024F9C" d="M163.8,513.695H27.267c-5.12,0-8.533-3.413-8.533-8.533V215.029c0-5.12,3.413-8.533,8.533-8.533H163.8
		c5.12,0,8.533,3.413,8.533,8.533v290.133C172.333,510.282,168.92,513.695,163.8,513.695z M35.8,496.629h119.467V223.562H35.8
		V496.629z"/>
	<path fill="#024F9C" d="M491.067,513.695H354.533c-5.12,0-8.533-3.413-8.533-8.533V215.029c0-5.12,3.413-8.533,8.533-8.533h136.533
		c5.12,0,8.533,3.413,8.533,8.533v290.133C499.6,510.282,496.187,513.695,491.067,513.695z M363.067,496.629h119.467V223.562
		H363.067V496.629z"/>
	<path fill="#024F9C" d="M257.667,189.429c-28.16,0-51.2-23.04-51.2-51.2s23.04-51.2,51.2-51.2s51.2,23.04,51.2,51.2
		S285.827,189.429,257.667,189.429z M257.667,104.095c-18.773,0-34.133,15.36-34.133,34.133s15.36,34.133,34.133,34.133
		s34.133-15.36,34.133-34.133S276.44,104.095,257.667,104.095z"/>
	<path fill="#024F9C" d="M129.667,325.962H61.4c-5.12,0-8.533-3.413-8.533-8.533v-68.267c0-5.12,3.413-8.533,8.533-8.533h68.267
		c5.12,0,8.533,3.413,8.533,8.533v68.267C138.2,322.549,134.787,325.962,129.667,325.962z M69.933,308.895h51.2v-51.2h-51.2V308.895
		z"/>
	<path fill="#024F9C" d="M291.8,325.962h-68.267c-5.12,0-8.533-3.413-8.533-8.533v-68.267c0-5.12,3.413-8.533,8.533-8.533H291.8
		c5.12,0,8.533,3.413,8.533,8.533v68.267C300.333,322.549,296.92,325.962,291.8,325.962z M232.067,308.895h51.2v-51.2h-51.2V308.895
		z"/>
	<path fill="#024F9C" d="M129.667,428.362H61.4c-5.12,0-8.533-3.413-8.533-8.533v-68.267c0-5.12,3.413-8.533,8.533-8.533h68.267
		c5.12,0,8.533,3.413,8.533,8.533v68.267C138.2,424.949,134.787,428.362,129.667,428.362z M69.933,411.295h51.2v-51.2h-51.2V411.295
		z"/>
	<path fill="#024F9C" d="M453.933,325.962h-68.267c-5.12,0-8.533-3.413-8.533-8.533v-68.267c0-5.12,3.413-8.533,8.533-8.533h68.267
		c5.12,0,8.533,3.413,8.533,8.533v68.267C462.467,322.549,459.053,325.962,453.933,325.962z M394.2,308.895h51.2v-51.2h-51.2
		V308.895z"/>
	<path fill="#024F9C" d="M453.933,428.362h-68.267c-5.12,0-8.533-3.413-8.533-8.533v-68.267c0-5.12,3.413-8.533,8.533-8.533h68.267
		c5.12,0,8.533,3.413,8.533,8.533v68.267C462.467,424.949,459.053,428.362,453.933,428.362z M394.2,411.295h51.2v-51.2h-51.2
		V411.295z"/>
	<rect x="28" y="462" fill="#024F9C" width="173" height="18"/>
	<rect x="42" y="310" fill="#024F9C" width="107" height="16"/>
	<rect x="42" y="413" fill="#024F9C" width="107" height="16"/>
	<rect x="203" y="310" fill="#024F9C" width="107" height="16"/>
	<rect x="366" y="310" fill="#024F9C" width="107" height="16"/>
	<rect x="367" y="413" fill="#024F9C" width="107" height="16"/>
	<rect x="91.5" y="355.5" fill="#024F9C" stroke="#024F9C" stroke-width="3" stroke-miterlimit="10" width="7" height="71"/>
	<rect x="60.5" y="385.5" fill="#024F9C" stroke="#024F9C" stroke-width="3" stroke-miterlimit="10" width="71" height="7"/>
	<rect x="92.5" y="246.5" fill="#024F9C" stroke="#024F9C" stroke-width="3" stroke-miterlimit="10" width="7" height="71"/>
	<rect x="60.5" y="279.5" fill="#024F9C" stroke="#024F9C" stroke-width="3" stroke-miterlimit="10" width="71" height="7"/>
	<rect x="253.5" y="247.5" fill="#024F9C" stroke="#024F9C" stroke-width="3" stroke-miterlimit="10" width="7" height="71"/>
	<rect x="222.5" y="281.5" fill="#024F9C" stroke="#024F9C" stroke-width="3" stroke-miterlimit="10" width="71" height="7"/>
	<rect x="417.5" y="249.5" fill="#024F9C" stroke="#024F9C" stroke-width="3" stroke-miterlimit="10" width="7" height="71"/>
	<rect x="386.5" y="282.5" fill="#024F9C" stroke="#024F9C" stroke-width="3" stroke-miterlimit="10" width="71" height="7"/>
	<rect x="417.5" y="349.5" fill="#024F9C" stroke="#024F9C" stroke-width="3" stroke-miterlimit="10" width="7" height="71"/>
	<rect x="386.5" y="382.5" fill="#024F9C" stroke="#024F9C" stroke-width="3" stroke-miterlimit="10" width="71" height="7"/>
	<rect x="253.5" y="102.5" fill="#024F9C" stroke="#024F9C" stroke-width="3" stroke-miterlimit="10" width="7" height="71"/>
	<rect x="222.5" y="135.5" fill="#024F9C" stroke="#024F9C" stroke-width="3" stroke-miterlimit="10" width="71" height="7"/>
</g>
</svg>
