<?xml version="1.0" encoding="utf-8"?>
<!-- Generator: Adobe Illustrator 17.0.0, SVG Export Plug-In . SVG Version: 6.00 Build 0)  -->
<!DOCTYPE svg PUBLIC "-//W3C//DTD SVG 1.1//EN" "http://www.w3.org/Graphics/SVG/1.1/DTD/svg11.dtd">
<svg version="1.1" id="Layer_1" xmlns="http://www.w3.org/2000/svg" xmlns:xlink="http://www.w3.org/1999/xlink" x="0px" y="0px"
	 width="440px" height="405px" viewBox="0 0 440 405" enable-background="new 0 0 440 405" xml:space="preserve">
<g>
	<path fill="#ECEEEF" d="M21.199,206.527v-61.44c0-3.413,1.462-6.827,4.386-7.68l190.066-92.16c1.462-0.853,3.655-0.853,5.848,0
		l190.066,92.16c2.924,1.707,4.386,4.267,4.386,7.68V394.26c0,5.12-2.924,8.533-7.31,8.533H28.509c-4.386,0-7.31-3.413-7.31-8.533
		v-85.333 M35.819,150.207 M35.819,385.727H401.33"/>
	<rect x="184" y="113" fill="#ECEEEF" width="72" height="51"/>
	<rect x="300" y="207" fill="#ECEEEF" width="73" height="85"/>
	<rect x="60" y="198" fill="#ECEEEF" width="87" height="94"/>
	<rect x="180" y="233" fill="#ECEEEF" width="79" height="154"/>
	<path fill="#ECEEEF" d="M431.571,164.513c-0.731,0-2.193,0-2.924-0.853L219.575,62.967L10.503,163.66
		c-2.193,0.853-5.117,0.853-6.579-0.853c-2.193-1.707-3.655-4.267-3.655-6.827v-42.667c0-3.413,1.462-6.827,4.386-7.68
		l211.996-102.4c1.462-0.853,3.655-0.853,5.848,0l211.996,102.4c2.924,1.707,4.386,4.267,4.386,7.68v42.667
		c0,2.56-1.462,5.12-2.924,6.827C434.495,163.66,433.033,164.513,431.571,164.513z"/>
	<path fill="#024F9C" d="M430.618,163.867c-0.726,0-2.179,0-2.905-0.853L219.978,62.32L12.244,163.013
		c-2.179,0.853-5.084,0.853-6.537-0.853c-2.179-1.707-3.632-4.267-3.632-6.827v-42.667c0-3.413,1.453-6.827,4.358-7.68l210.64-102.4
		c1.453-0.853,3.632-0.853,5.811,0l210.64,102.4c2.905,1.707,4.358,4.267,4.358,7.68v42.667c0,2.56-1.453,5.12-2.905,6.827
		C433.524,163.013,432.071,163.867,430.618,163.867z M219.978,44.4c0.726,0,2.179,0,2.905,0.853l200.471,97.28V118.64
		L219.978,19.653L16.602,118.64v23.893l200.471-97.28C217.799,44.4,219.252,44.4,219.978,44.4z"/>
	<path fill="#024F9C" d="M408.828,402.8H31.129c-4.358,0-7.263-3.413-7.263-8.533V145.093c0-3.413,1.453-6.827,4.358-7.68
		l188.85-92.16c1.453-0.853,3.632-0.853,5.811,0l188.85,92.16c2.905,1.707,4.358,4.267,4.358,7.68v249.173
		C416.091,399.387,413.186,402.8,408.828,402.8z M38.392,385.733h363.172v-235.52L219.978,62.32L38.392,150.213V385.733z"/>
	<path fill="#024F9C" d="M263.559,180.933h-87.161c-4.358,0-7.263-3.413-7.263-8.533v-68.267c0-5.12,2.905-8.533,7.263-8.533h87.161
		c4.358,0,7.263,3.413,7.263,8.533V172.4C270.822,177.52,267.917,180.933,263.559,180.933z M183.661,163.867h72.634v-51.2h-72.634
		V163.867z"/>
	<path fill="#024F9C" d="M147.344,308.933H60.182c-4.358,0-7.263-3.413-7.263-8.533V198c0-5.12,2.905-8.533,7.263-8.533h87.161
		c4.358,0,7.263,3.413,7.263,8.533v102.4C154.607,305.52,151.702,308.933,147.344,308.933z M67.446,291.867h72.634v-85.333H67.446
		V291.867z"/>
	<path fill="#024F9C" d="M379.774,308.933h-87.161c-4.358,0-7.263-3.413-7.263-8.533V198c0-5.12,2.905-8.533,7.263-8.533h87.161
		c4.358,0,7.263,3.413,7.263,8.533v102.4C387.037,305.52,384.132,308.933,379.774,308.933z M299.876,291.867h72.634v-85.333h-72.634
		V291.867z"/>
	<path fill="#024F9C" d="M176.398,360.133H31.129c-4.358,0-7.263-3.413-7.263-8.533c0-5.12,2.905-8.533,7.263-8.533h145.269
		c4.358,0,7.263,3.413,7.263,8.533C183.661,356.72,180.756,360.133,176.398,360.133z"/>
	<path fill="#024F9C" d="M408.828,360.133H263.559c-4.358,0-7.263-3.413-7.263-8.533c0-5.12,2.905-8.533,7.263-8.533h145.269
		c4.358,0,7.263,3.413,7.263,8.533C416.091,356.72,413.186,360.133,408.828,360.133z"/>
	<rect x="229" y="312" fill="#024F9C" width="19" height="7"/>
	<rect x="180" y="233" fill="none" stroke="#024F9C" stroke-width="12" stroke-miterlimit="10" width="79" height="154"/>
	<rect x="45" y="292" fill="#024F9C" width="118" height="18"/>
	<rect x="59" y="244" fill="#024F9C" width="92" height="9"/>
	<rect x="58" y="244" transform="matrix(0.0057 -1 1 0.0057 -145.0921 351.0737)" fill="#024F9C" width="92" height="9"/>
	<rect x="277" y="292" fill="#024F9C" width="118" height="18"/>
	<rect x="291" y="244" fill="#024F9C" width="92" height="9"/>
	<rect x="290" y="244" transform="matrix(0.0057 -1 1 0.0057 85.5779 583.0699)" fill="#024F9C" width="92" height="9"/>
	<rect x="179" y="134" fill="#024F9C" width="83" height="9"/>
	<rect x="163" y="164" fill="#024F9C" width="113" height="18"/>
</g>
</svg>
