<?xml version="1.0" encoding="utf-8"?>
<!-- Generator: Adobe Illustrator 17.0.0, SVG Export Plug-In . SVG Version: 6.00 Build 0)  -->
<!DOCTYPE svg PUBLIC "-//W3C//DTD SVG 1.1//EN" "http://www.w3.org/Graphics/SVG/1.1/DTD/svg11.dtd">
<svg version="1.1" id="Layer_1" xmlns="http://www.w3.org/2000/svg" xmlns:xlink="http://www.w3.org/1999/xlink" x="0px" y="0px"
	 width="440px" height="510px" viewBox="0 0 440 510" enable-background="new 0 0 440 510" xml:space="preserve">
<g>
	<path fill="#ECEEEF" d="M22.199,204.527v-61.44c0-3.413,1.462-6.827,4.386-7.68l190.066-92.16c1.462-0.853,3.655-0.853,5.848,0
		l190.066,92.16c2.924,1.707,4.386,4.267,4.386,7.68V392.26c0,5.12-2.924,8.533-7.31,8.533H29.509c-4.386,0-7.31-3.413-7.31-8.533
		v-85.333 M36.819,148.207 M36.819,383.727H402.33"/>
	<rect x="185" y="111" fill="#ECEEEF" width="72" height="51"/>
	<rect x="301" y="205" fill="#ECEEEF" width="73" height="85"/>
	<rect x="61" y="196" fill="#ECEEEF" width="87" height="94"/>
	<rect x="181" y="231" fill="#ECEEEF" width="79" height="154"/>
	<path fill="#ECEEEF" d="M432.571,162.513c-0.731,0-2.193,0-2.924-0.853L220.575,60.967L11.503,161.66
		c-2.193,0.853-5.117,0.853-6.579-0.853c-2.193-1.707-3.655-4.267-3.655-6.827v-42.667c0-3.413,1.462-6.827,4.386-7.68
		l211.996-102.4c1.462-0.853,3.655-0.853,5.848,0l211.996,102.4c2.924,1.707,4.386,4.267,4.386,7.68v42.667
		c0,2.56-1.462,5.12-2.924,6.827C435.495,161.66,434.033,162.513,432.571,162.513z"/>
	<path fill="#024F9C" d="M431.618,161.867c-0.726,0-2.179,0-2.905-0.853L220.978,60.32L13.244,161.013
		c-2.179,0.853-5.084,0.853-6.537-0.853c-2.179-1.707-3.632-4.267-3.632-6.827v-42.667c0-3.413,1.453-6.827,4.358-7.68l210.64-102.4
		c1.453-0.853,3.632-0.853,5.811,0l210.64,102.4c2.905,1.707,4.358,4.267,4.358,7.68v42.667c0,2.56-1.453,5.12-2.905,6.827
		C434.524,161.013,433.071,161.867,431.618,161.867z M220.978,42.4c0.726,0,2.179,0,2.905,0.853l200.471,97.28V116.64
		L220.978,17.653L17.602,116.64v23.893l200.471-97.28C218.799,42.4,220.252,42.4,220.978,42.4z"/>
	<path fill="#024F9C" d="M409.828,400.8H32.129c-4.358,0-7.263-3.413-7.263-8.533V143.093c0-3.413,1.453-6.827,4.358-7.68
		l188.85-92.16c1.453-0.853,3.632-0.853,5.811,0l188.85,92.16c2.905,1.707,4.358,4.267,4.358,7.68v249.173
		C417.091,397.387,414.186,400.8,409.828,400.8z M39.392,383.733h363.172v-235.52L220.978,60.32L39.392,148.213V383.733z"/>
	<path fill="#024F9C" d="M264.559,178.933h-87.161c-4.358,0-7.263-3.413-7.263-8.533v-68.267c0-5.12,2.905-8.533,7.263-8.533h87.161
		c4.358,0,7.263,3.413,7.263,8.533V170.4C271.822,175.52,268.917,178.933,264.559,178.933z M184.661,161.867h72.634v-51.2h-72.634
		V161.867z"/>
	<path fill="#024F9C" d="M148.344,306.933H61.182c-4.358,0-7.263-3.413-7.263-8.533V196c0-5.12,2.905-8.533,7.263-8.533h87.161
		c4.358,0,7.263,3.413,7.263,8.533v102.4C155.607,303.52,152.702,306.933,148.344,306.933z M68.446,289.867h72.634v-85.333H68.446
		V289.867z"/>
	<path fill="#024F9C" d="M380.774,306.933h-87.161c-4.358,0-7.263-3.413-7.263-8.533V196c0-5.12,2.905-8.533,7.263-8.533h87.161
		c4.358,0,7.263,3.413,7.263,8.533v102.4C388.037,303.52,385.132,306.933,380.774,306.933z M300.876,289.867h72.634v-85.333h-72.634
		V289.867z"/>
	<path fill="#024F9C" d="M177.398,358.133H32.129c-4.358,0-7.263-3.413-7.263-8.533c0-5.12,2.905-8.533,7.263-8.533h145.269
		c4.358,0,7.263,3.413,7.263,8.533C184.661,354.72,181.756,358.133,177.398,358.133z"/>
	<path fill="#024F9C" d="M409.828,358.133H264.559c-4.358,0-7.263-3.413-7.263-8.533c0-5.12,2.905-8.533,7.263-8.533h145.269
		c4.358,0,7.263,3.413,7.263,8.533C417.091,354.72,414.186,358.133,409.828,358.133z"/>
	<rect x="230" y="310" fill="#024F9C" width="19" height="7"/>
	<rect x="181" y="231" fill="none" stroke="#024F9C" stroke-width="12" stroke-miterlimit="10" width="79" height="154"/>
	<rect x="46" y="290" fill="#024F9C" width="118" height="18"/>
	<rect x="60" y="242" fill="#024F9C" width="92" height="9"/>
	<rect x="59" y="242" transform="matrix(0.0057 -1 1 0.0057 -142.0979 350.0852)" fill="#024F9C" width="92" height="9"/>
	<rect x="278" y="290" fill="#024F9C" width="118" height="18"/>
	<rect x="292" y="242" fill="#024F9C" width="92" height="9"/>
	<rect x="291" y="242" transform="matrix(0.0057 -1 1 0.0057 88.5722 582.0814)" fill="#024F9C" width="92" height="9"/>
	<rect x="180" y="132" fill="#024F9C" width="83" height="9"/>
	<rect x="164" y="162" fill="#024F9C" width="113" height="18"/>
	<polygon fill="#B9B9BA" points="231.982,455.499 258.985,459.843 239.112,478.633 243.326,505.657 219.314,492.564 
		194.915,504.921 199.947,478.038 180.655,458.653 207.777,455.131 220.252,430.793 	"/>
</g>
</svg>
