<?xml version="1.0" encoding="utf-8"?>
<!-- Generator: Adobe Illustrator 17.0.0, SVG Export Plug-In . SVG Version: 6.00 Build 0)  -->
<!DOCTYPE svg PUBLIC "-//W3C//DTD SVG 1.1//EN" "http://www.w3.org/Graphics/SVG/1.1/DTD/svg11.dtd">
<svg version="1.1" id="Layer_1" xmlns="http://www.w3.org/2000/svg" xmlns:xlink="http://www.w3.org/1999/xlink" x="0px" y="0px"
	 width="620px" height="515px" viewBox="0 0 620 515" enable-background="new 0 0 620 515" xml:space="preserve">
<g>
	<path fill="#ECEEEF" d="M456.478,512.695H269.754c-5.092,0-8.487-3.356-8.487-8.389V118.411c0-1.678,0.849-4.195,2.546-5.872
		L357.175,11.87c3.395-3.356,9.336-3.356,12.731,0l93.362,100.668c1.697,1.678,2.546,3.356,2.546,5.872v385.896
		C464.966,509.34,461.571,512.695,456.478,512.695z"/>
	<rect x="334" y="257" fill="#B9B9BA" width="55" height="52"/>
	<path fill="#ECEEEF" d="M274.567,509.1H138.033c-5.12,0-8.533-3.413-8.533-8.533V210.433c0-5.12,3.413-8.533,8.533-8.533h136.533
		c5.12,0,8.533,3.413,8.533,8.533v290.133C283.1,505.687,279.687,509.1,274.567,509.1z"/>
	<rect x="175" y="258" fill="#B9B9BA" width="51" height="36"/>
	<path fill="#ECEEEF" d="M108.541,221.002c-1.707-2.56-2.56-5.12-1.707-7.68l25.6-102.4c0.853-4.267,4.267-6.827,8.533-6.827h128
		c5.12,0,8.533,3.413,8.533,8.533v102.4c0,5.12-3.413,8.533-8.533,8.533h-153.6C112.807,223.562,110.247,223.562,108.541,221.002z"
		/>
	<path fill="#ECEEEF" d="M610.133,223.562h-153.6c-5.12,0-8.533-3.413-8.533-8.533v-102.4c0-5.12,3.413-8.533,8.533-8.533h128
		c4.267,0,7.68,2.56,8.533,6.827l25.6,102.4c0.853,2.56,0,5.12-1.707,7.68S612.693,223.562,610.133,223.562z"/>
	<path fill="#ECEEEF" d="M595.067,513.6H458.533c-5.12,0-8.533-3.413-8.533-8.533V214.933c0-5.12,3.413-8.533,8.533-8.533h136.533
		c5.12,0,8.533,3.413,8.533,8.533v290.133C603.6,510.187,600.187,513.6,595.067,513.6z"/>
	<rect x="422" y="462" fill="#024F9C" width="180" height="18"/>
	<rect x="304" y="360" fill="none" stroke="#024F9C" stroke-width="12" stroke-miterlimit="10" width="59" height="148"/>
	<rect x="363" y="360" fill="none" stroke="#024F9C" stroke-width="12" stroke-miterlimit="10" width="59" height="148"/>
	<rect x="348" y="434" fill="#024F9C" width="30" height="9"/>
	<path fill="#024F9C" d="M456.533,513.695H268.8c-5.12,0-8.533-3.413-8.533-8.533V112.629c0-1.707,0.853-4.267,2.56-5.973
		l93.867-102.4c3.413-3.413,9.387-3.413,12.8,0l93.867,102.4c1.707,1.707,2.56,3.413,2.56,5.973v392.533
		C465.067,510.282,461.653,513.695,456.533,513.695z M277.333,496.629H448V116.042l-85.333-93.013l-85.333,93.013V496.629z"/>
	<path fill="#024F9C" d="M268.8,223.562H115.2c-2.56,0-5.12-0.853-6.827-3.413s-1.707-4.267-1.707-6.827l25.6-102.4
		c0.853-4.267,4.267-6.827,8.533-6.827h128c5.12,0,8.533,3.413,8.533,8.533v102.4C277.333,220.149,273.92,223.562,268.8,223.562z
		 M126.293,206.495h133.973v-85.333h-112.64L126.293,206.495z"/>
	<path fill="#024F9C" d="M610.133,223.562h-153.6c-5.12,0-8.533-3.413-8.533-8.533v-102.4c0-5.12,3.413-8.533,8.533-8.533h128
		c4.267,0,7.68,2.56,8.533,6.827l25.6,102.4c0.853,2.56,0,5.12-1.707,7.68S612.693,223.562,610.133,223.562z M465.067,206.495
		H599.04l-21.333-85.333h-112.64V206.495z"/>
	<path fill="#024F9C" d="M268.8,513.695H132.267c-5.12,0-8.533-3.413-8.533-8.533V215.029c0-5.12,3.413-8.533,8.533-8.533H268.8
		c5.12,0,8.533,3.413,8.533,8.533v290.133C277.333,510.282,273.92,513.695,268.8,513.695z M140.8,496.629h119.467V223.562H140.8
		V496.629z"/>
	<path fill="#024F9C" d="M596.067,513.695H459.533c-5.12,0-8.533-3.413-8.533-8.533V215.029c0-5.12,3.413-8.533,8.533-8.533h136.533
		c5.12,0,8.533,3.413,8.533,8.533v290.133C604.6,510.282,601.187,513.695,596.067,513.695z M468.067,496.629h119.467V223.562
		H468.067V496.629z"/>
	<path fill="#024F9C" d="M362.667,189.429c-28.16,0-51.2-23.04-51.2-51.2s23.04-51.2,51.2-51.2s51.2,23.04,51.2,51.2
		S390.827,189.429,362.667,189.429z M362.667,104.095c-18.773,0-34.133,15.36-34.133,34.133s15.36,34.133,34.133,34.133
		s34.133-15.36,34.133-34.133S381.44,104.095,362.667,104.095z"/>
	<path fill="#024F9C" d="M234.667,325.962H166.4c-5.12,0-8.533-3.413-8.533-8.533v-68.267c0-5.12,3.413-8.533,8.533-8.533h68.267
		c5.12,0,8.533,3.413,8.533,8.533v68.267C243.2,322.549,239.787,325.962,234.667,325.962z M174.933,308.895h51.2v-51.2h-51.2
		V308.895z"/>
	<path fill="#024F9C" d="M396.8,325.962h-68.267c-5.12,0-8.533-3.413-8.533-8.533v-68.267c0-5.12,3.413-8.533,8.533-8.533H396.8
		c5.12,0,8.533,3.413,8.533,8.533v68.267C405.333,322.549,401.92,325.962,396.8,325.962z M337.067,308.895h51.2v-51.2h-51.2V308.895
		z"/>
	<path fill="#024F9C" d="M558.933,325.962h-68.267c-5.12,0-8.533-3.413-8.533-8.533v-68.267c0-5.12,3.413-8.533,8.533-8.533h68.267
		c5.12,0,8.533,3.413,8.533,8.533v68.267C567.467,322.549,564.053,325.962,558.933,325.962z M499.2,308.895h51.2v-51.2h-51.2
		V308.895z"/>
	<path fill="#024F9C" d="M558.933,428.362h-68.267c-5.12,0-8.533-3.413-8.533-8.533v-68.267c0-5.12,3.413-8.533,8.533-8.533h68.267
		c5.12,0,8.533,3.413,8.533,8.533v68.267C567.467,424.949,564.053,428.362,558.933,428.362z M499.2,411.295h51.2v-51.2h-51.2
		V411.295z"/>
	<path d="M296.162,479.562H131.571c-4.703,0-7.838-3.413-7.838-8.533s3.135-8.533,7.838-8.533h164.591
		c4.703,0,7.838,3.413,7.838,8.533S300.865,479.562,296.162,479.562z"/>
	<rect x="126" y="462" fill="#024F9C" width="180" height="18"/>
	<rect x="147" y="310" fill="#024F9C" width="107" height="16"/>
	<rect x="308" y="310" fill="#024F9C" width="107" height="16"/>
	<rect x="471" y="310" fill="#024F9C" width="107" height="16"/>
	<rect x="472" y="412" fill="#024F9C" width="107" height="16"/>
	<rect x="197.5" y="246.5" fill="#024F9C" stroke="#024F9C" stroke-width="3" stroke-miterlimit="10" width="7" height="71"/>
	<rect x="165.5" y="279.5" fill="#024F9C" stroke="#024F9C" stroke-width="3" stroke-miterlimit="10" width="71" height="7"/>
	<rect x="358.5" y="247.5" fill="#024F9C" stroke="#024F9C" stroke-width="3" stroke-miterlimit="10" width="7" height="71"/>
	<rect x="327.5" y="281.5" fill="#024F9C" stroke="#024F9C" stroke-width="3" stroke-miterlimit="10" width="71" height="7"/>
	<rect x="522.5" y="249.5" fill="#024F9C" stroke="#024F9C" stroke-width="3" stroke-miterlimit="10" width="7" height="71"/>
	<rect x="491.5" y="282.5" fill="#024F9C" stroke="#024F9C" stroke-width="3" stroke-miterlimit="10" width="71" height="7"/>
	<rect x="522.5" y="349.5" fill="#024F9C" stroke="#024F9C" stroke-width="3" stroke-miterlimit="10" width="7" height="71"/>
	<rect x="491.5" y="382.5" fill="#024F9C" stroke="#024F9C" stroke-width="3" stroke-miterlimit="10" width="71" height="7"/>
	<rect x="358.5" y="102.5" fill="#024F9C" stroke="#024F9C" stroke-width="3" stroke-miterlimit="10" width="7" height="71"/>
	<rect x="327.5" y="135.5" fill="#024F9C" stroke="#024F9C" stroke-width="3" stroke-miterlimit="10" width="71" height="7"/>
	<rect x="9" y="290" fill="none" stroke="#024F9C" stroke-width="14" stroke-miterlimit="10" width="252" height="57"/>
	<path fill="#024F9C" stroke="#024F9C" stroke-width="6" stroke-miterlimit="10" d="M133.256,510.695H12.544
		c-4.527,0-7.544-1.885-7.544-4.713V345.742c0-2.828,3.018-4.713,7.544-4.713h120.711c4.527,0,7.544,1.885,7.544,4.713v160.241
		C140.8,508.81,137.782,510.695,133.256,510.695z M20.089,501.27h105.622V350.455H20.089V501.27z"/>
	<rect x="18" y="354" fill="#ECEEEF" width="242" height="144"/>
	<path fill="#024F9C" d="M116.667,435.362H48.4c-5.12,0-8.533-3.413-8.533-8.533v-68.267c0-5.12,3.413-8.533,8.533-8.533h68.267
		c5.12,0,8.533,3.413,8.533,8.533v68.267C125.2,431.949,121.787,435.362,116.667,435.362z M56.933,418.295h51.2v-51.2h-51.2V418.295
		z"/>
	<rect x="29" y="420" fill="#024F9C" width="107" height="16"/>
	<rect x="78.5" y="362.5" fill="#024F9C" stroke="#024F9C" stroke-width="3" stroke-miterlimit="10" width="7" height="71"/>
	<rect x="47.5" y="392.5" fill="#024F9C" stroke="#024F9C" stroke-width="3" stroke-miterlimit="10" width="71" height="7"/>
	<path fill="#024F9C" d="M234.667,433.362H166.4c-5.12,0-8.533-3.413-8.533-8.533v-68.267c0-5.12,3.413-8.533,8.533-8.533h68.267
		c5.12,0,8.533,3.413,8.533,8.533v68.267C243.2,429.949,239.787,433.362,234.667,433.362z M174.933,416.295h51.2v-51.2h-51.2
		V416.295z"/>
	<rect x="147" y="418" fill="#024F9C" width="107" height="16"/>
	<rect x="196.5" y="360.5" fill="#024F9C" stroke="#024F9C" stroke-width="3" stroke-miterlimit="10" width="7" height="71"/>
	<rect x="165.5" y="390.5" fill="#024F9C" stroke="#024F9C" stroke-width="3" stroke-miterlimit="10" width="71" height="7"/>
	<rect x="9" y="294" fill="#B9B9BA" width="248" height="49"/>
	<rect x="9" y="310" fill="#024F9C" width="249" height="5"/>
	<rect x="7" y="320" fill="#024F9C" width="253" height="5"/>
	<rect x="9" y="329" fill="#024F9C" width="252" height="5"/>
	<rect x="3" y="462" fill="#024F9C" width="288" height="18"/>
</g>
</svg>
