<?xml version="1.0" encoding="utf-8"?>
<!-- Generator: Adobe Illustrator 17.0.0, SVG Export Plug-In . SVG Version: 6.00 Build 0)  -->
<!DOCTYPE svg PUBLIC "-//W3C//DTD SVG 1.1//EN" "http://www.w3.org/Graphics/SVG/1.1/DTD/svg11.dtd">
<svg version="1.1" id="Layer_1" xmlns="http://www.w3.org/2000/svg" xmlns:xlink="http://www.w3.org/1999/xlink" x="0px" y="0px"
	 width="415px" height="395px" viewBox="0 0 415 395" enable-background="new 0 0 415 395" xml:space="preserve">
<g>
	<rect x="10" y="18" fill="#ECEEEF" width="394" height="370"/>
	<path fill="#024F9C" d="M404.606,395.648H10.394c-4.928,0-8.213-3.146-8.213-7.866V10.218c0-4.72,3.285-7.866,8.213-7.866h394.213
		c4.928,0,8.213,3.146,8.213,7.866v377.564C412.819,392.502,409.534,395.648,404.606,395.648z M18.606,379.916h377.787V18.084
		H18.606V379.916z"/>
	<path fill="#024F9C" d="M158.223,206.866H10.394c-4.928,0-8.213-3.146-8.213-7.866V10.218c0-4.72,3.285-7.866,8.213-7.866h147.83
		c4.928,0,8.213,3.146,8.213,7.866v62.927c0,4.72-3.285,7.866-8.213,7.866c-4.928,0-8.213-3.146-8.213-7.866V18.084H18.606v173.05
		h131.404v-55.061c0-4.72,3.285-7.866,8.213-7.866c4.928,0,8.213,3.146,8.213,7.866V199
		C166.436,203.72,163.151,206.866,158.223,206.866z"/>
	<path fill="#024F9C" d="M174.649,81.011h-32.851c-4.928,0-8.213-3.146-8.213-7.866s3.285-7.866,8.213-7.866h32.851
		c4.928,0,8.213,3.146,8.213,7.866S179.577,81.011,174.649,81.011z"/>
	<path fill="#024F9C" d="M174.649,143.939h-32.851c-4.928,0-8.213-3.146-8.213-7.866s3.285-7.866,8.213-7.866h32.851
		c4.928,0,8.213,3.146,8.213,7.866S179.577,143.939,174.649,143.939z"/>
	<path fill="#024F9C" d="M289.628,128.207c-4.928,0-8.213-3.146-8.213-7.866V88.877c0-4.72,3.285-7.866,8.213-7.866
		c4.928,0,8.213,3.146,8.213,7.866v31.464C297.84,125.06,294.555,128.207,289.628,128.207z"/>
	<path fill="#024F9C" d="M355.33,128.207c-4.928,0-8.213-3.146-8.213-7.866V88.877c0-4.72,3.285-7.866,8.213-7.866
		s8.213,3.146,8.213,7.866v31.464C363.543,125.06,360.257,128.207,355.33,128.207z"/>
	<path fill="#024F9C" d="M404.606,395.648H207.5c-4.928,0-8.213-3.146-8.213-7.866V246.196c0-4.72,3.285-7.866,8.213-7.866h65.702
		c4.928,0,8.213,3.146,8.213,7.866s-3.285,7.866-8.213,7.866h-57.489v125.855h180.681V254.061h-57.489
		c-4.928,0-8.213-3.146-8.213-7.866s3.285-7.866,8.213-7.866h65.702c4.928,0,8.213,3.146,8.213,7.866v141.587
		C412.819,392.502,409.534,395.648,404.606,395.648z"/>
	<path fill="#024F9C" d="M273.202,269.793c-4.928,0-8.213-3.146-8.213-7.866v-31.464c0-4.72,3.285-7.866,8.213-7.866
		s8.213,3.146,8.213,7.866v31.464C281.415,266.647,278.13,269.793,273.202,269.793z"/>
	<path fill="#024F9C" d="M338.904,269.793c-4.928,0-8.213-3.146-8.213-7.866v-31.464c0-4.72,3.285-7.866,8.213-7.866
		s8.213,3.146,8.213,7.866v31.464C347.117,266.647,343.832,269.793,338.904,269.793z"/>
	<path fill="#024F9C" d="M404.606,112.475H355.33c-4.928,0-8.213-3.146-8.213-7.866s3.285-7.866,8.213-7.866h41.064V18.084H256.777
		v78.659h32.851c4.928,0,8.213,3.146,8.213,7.866s-3.285,7.866-8.213,7.866h-41.064c-4.928,0-8.213-3.146-8.213-7.866V10.218
		c0-4.72,3.285-7.866,8.213-7.866h156.043c4.928,0,8.213,3.146,8.213,7.866v94.391C412.819,109.328,409.534,112.475,404.606,112.475
		z"/>
	<path fill="#024F9C" d="M10.394,364.184c-4.928,0-8.213-3.146-8.213-7.866v-94.391c0-4.72,3.285-7.866,8.213-7.866h98.553
		c4.928,0,8.213,3.146,8.213,7.866C117.16,318.562,69.526,364.184,10.394,364.184z M18.606,269.793v78.659
		c43.528-3.933,78.021-36.97,82.128-78.659H18.606z"/>
</g>
</svg>
